<mxfile host="Electron" modified="2024-03-07T01:18:52.659Z" agent="Mozilla/5.0 (Windows NT 10.0; Win64; x64) AppleWebKit/537.36 (KHTML, like Gecko) draw.io/23.1.5 Chrome/120.0.6099.109 Electron/28.1.0 Safari/537.36" etag="kT7VofoJ8CnO_OQ6r5si" version="23.1.5" type="device">
  <diagram name="Página-1" id="B5JYyGaXFWTZYE-W6-dS">
    <mxGraphModel dx="978" dy="571" grid="1" gridSize="10" guides="1" tooltips="1" connect="1" arrows="1" fold="1" page="1" pageScale="1" pageWidth="1920" pageHeight="1200" math="0" shadow="0">
      <root>
        <mxCell id="0" />
        <mxCell id="1" parent="0" />
        <mxCell id="rjKY2ztjMAtcOO7rQj_c-4" style="edgeStyle=orthogonalEdgeStyle;rounded=0;orthogonalLoop=1;jettySize=auto;html=1;strokeWidth=3;endArrow=block;endFill=1;startSize=6;" edge="1" parent="1" source="rjKY2ztjMAtcOO7rQj_c-1" target="rjKY2ztjMAtcOO7rQj_c-2">
          <mxGeometry relative="1" as="geometry" />
        </mxCell>
        <mxCell id="rjKY2ztjMAtcOO7rQj_c-7" value="&amp;nbsp;1 s&amp;nbsp;" style="edgeLabel;html=1;align=center;verticalAlign=middle;resizable=0;points=[];" vertex="1" connectable="0" parent="rjKY2ztjMAtcOO7rQj_c-4">
          <mxGeometry x="-0.0841" y="-2" relative="1" as="geometry">
            <mxPoint as="offset" />
          </mxGeometry>
        </mxCell>
        <mxCell id="rjKY2ztjMAtcOO7rQj_c-1" value="state 0&lt;div&gt;espera 1s&lt;/div&gt;&lt;div&gt;imprime&lt;/div&gt;&lt;div&gt;&quot;pasó 1s&quot;&lt;/div&gt;" style="ellipse;whiteSpace=wrap;html=1;" vertex="1" parent="1">
          <mxGeometry x="310" y="250" width="120" height="80" as="geometry" />
        </mxCell>
        <mxCell id="rjKY2ztjMAtcOO7rQj_c-5" style="edgeStyle=orthogonalEdgeStyle;rounded=0;orthogonalLoop=1;jettySize=auto;html=1;entryX=0;entryY=0.5;entryDx=0;entryDy=0;strokeWidth=3;endArrow=block;endFill=1;startSize=6;" edge="1" parent="1" source="rjKY2ztjMAtcOO7rQj_c-2" target="rjKY2ztjMAtcOO7rQj_c-3">
          <mxGeometry relative="1" as="geometry" />
        </mxCell>
        <mxCell id="rjKY2ztjMAtcOO7rQj_c-8" value="2s" style="edgeLabel;html=1;align=center;verticalAlign=middle;resizable=0;points=[];" vertex="1" connectable="0" parent="rjKY2ztjMAtcOO7rQj_c-5">
          <mxGeometry x="-0.0437" relative="1" as="geometry">
            <mxPoint as="offset" />
          </mxGeometry>
        </mxCell>
        <mxCell id="rjKY2ztjMAtcOO7rQj_c-9" value="&amp;nbsp;2 s&amp;nbsp;" style="edgeLabel;html=1;align=center;verticalAlign=middle;resizable=0;points=[];" vertex="1" connectable="0" parent="rjKY2ztjMAtcOO7rQj_c-5">
          <mxGeometry x="-0.0086" y="1" relative="1" as="geometry">
            <mxPoint as="offset" />
          </mxGeometry>
        </mxCell>
        <mxCell id="rjKY2ztjMAtcOO7rQj_c-2" value="state 1&lt;br&gt;&lt;div&gt;espera 2s&lt;/div&gt;&lt;div&gt;imprime&lt;/div&gt;&lt;div&gt;&quot;pasaron 2s&quot;&lt;/div&gt;" style="ellipse;whiteSpace=wrap;html=1;" vertex="1" parent="1">
          <mxGeometry x="530" y="250" width="120" height="80" as="geometry" />
        </mxCell>
        <mxCell id="rjKY2ztjMAtcOO7rQj_c-6" style="edgeStyle=orthogonalEdgeStyle;rounded=0;orthogonalLoop=1;jettySize=auto;html=1;entryX=0.5;entryY=1;entryDx=0;entryDy=0;strokeWidth=3;endArrow=block;endFill=1;startSize=6;" edge="1" parent="1" source="rjKY2ztjMAtcOO7rQj_c-3" target="rjKY2ztjMAtcOO7rQj_c-1">
          <mxGeometry relative="1" as="geometry">
            <Array as="points">
              <mxPoint x="800" y="380" />
              <mxPoint x="370" y="380" />
            </Array>
          </mxGeometry>
        </mxCell>
        <mxCell id="rjKY2ztjMAtcOO7rQj_c-10" value="&amp;nbsp;3 s&amp;nbsp;" style="edgeLabel;html=1;align=center;verticalAlign=middle;resizable=0;points=[];" vertex="1" connectable="0" parent="rjKY2ztjMAtcOO7rQj_c-6">
          <mxGeometry x="-0.034" y="1" relative="1" as="geometry">
            <mxPoint as="offset" />
          </mxGeometry>
        </mxCell>
        <mxCell id="rjKY2ztjMAtcOO7rQj_c-3" value="state 2&lt;br&gt;&lt;div&gt;espera 3s&lt;/div&gt;&lt;div&gt;imprime&lt;/div&gt;&lt;div&gt;&quot;pasaron 3s&quot;&lt;/div&gt;" style="ellipse;whiteSpace=wrap;html=1;" vertex="1" parent="1">
          <mxGeometry x="740" y="250" width="120" height="80" as="geometry" />
        </mxCell>
        <mxCell id="rjKY2ztjMAtcOO7rQj_c-11" value="" style="shape=flexArrow;endArrow=classic;html=1;rounded=0;" edge="1" parent="1">
          <mxGeometry width="50" height="50" relative="1" as="geometry">
            <mxPoint x="260" y="230" as="sourcePoint" />
            <mxPoint x="310" y="270" as="targetPoint" />
          </mxGeometry>
        </mxCell>
        <mxCell id="rjKY2ztjMAtcOO7rQj_c-18" value="estado inicial" style="edgeLabel;html=1;align=center;verticalAlign=middle;resizable=0;points=[];" vertex="1" connectable="0" parent="rjKY2ztjMAtcOO7rQj_c-11">
          <mxGeometry x="-0.5275" y="4" relative="1" as="geometry">
            <mxPoint y="-20" as="offset" />
          </mxGeometry>
        </mxCell>
        <mxCell id="rjKY2ztjMAtcOO7rQj_c-12" value="evento" style="text;html=1;align=center;verticalAlign=middle;resizable=0;points=[];autosize=1;strokeColor=none;fillColor=none;" vertex="1" parent="1">
          <mxGeometry x="446" y="261" width="60" height="30" as="geometry" />
        </mxCell>
        <mxCell id="rjKY2ztjMAtcOO7rQj_c-13" value="evento" style="text;html=1;align=center;verticalAlign=middle;resizable=0;points=[];autosize=1;strokeColor=none;fillColor=none;" vertex="1" parent="1">
          <mxGeometry x="563" y="352" width="60" height="30" as="geometry" />
        </mxCell>
        <mxCell id="rjKY2ztjMAtcOO7rQj_c-14" value="evento" style="text;html=1;align=center;verticalAlign=middle;resizable=0;points=[];autosize=1;strokeColor=none;fillColor=none;" vertex="1" parent="1">
          <mxGeometry x="665" y="261" width="60" height="30" as="geometry" />
        </mxCell>
        <mxCell id="rjKY2ztjMAtcOO7rQj_c-15" value="estado" style="text;html=1;align=center;verticalAlign=middle;resizable=0;points=[];autosize=1;strokeColor=none;fillColor=none;" vertex="1" parent="1">
          <mxGeometry x="340" y="223" width="60" height="30" as="geometry" />
        </mxCell>
        <mxCell id="rjKY2ztjMAtcOO7rQj_c-16" value="estado" style="text;html=1;align=center;verticalAlign=middle;resizable=0;points=[];autosize=1;strokeColor=none;fillColor=none;" vertex="1" parent="1">
          <mxGeometry x="563" y="223" width="60" height="30" as="geometry" />
        </mxCell>
        <mxCell id="rjKY2ztjMAtcOO7rQj_c-17" value="estado" style="text;html=1;align=center;verticalAlign=middle;resizable=0;points=[];autosize=1;strokeColor=none;fillColor=none;" vertex="1" parent="1">
          <mxGeometry x="770" y="223" width="60" height="30" as="geometry" />
        </mxCell>
      </root>
    </mxGraphModel>
  </diagram>
</mxfile>
